<svg width="87" height="35" viewBox="0 0 87 35" fill="none" xmlns="http://www.w3.org/2000/svg">
<path d="M30.3523 21.3182H31.4261L35.12 30.1875H35.2095L38.9034 21.3182H39.9773V31.5H39.1023V23.282H39.0227L35.5874 31.5H34.7422L31.3068 23.282H31.2273V31.5H30.3523V21.3182Z" fill="white"/>
<path d="M44.6332 31.674C44.1725 31.674 43.7515 31.5845 43.3704 31.4055C42.9892 31.2232 42.686 30.9614 42.4606 30.62C42.2352 30.2753 42.1225 29.8577 42.1225 29.3672C42.1225 28.9893 42.1938 28.6712 42.3363 28.4126C42.4788 28.1541 42.681 27.942 42.9428 27.7763C43.2047 27.6106 43.5146 27.4796 43.8725 27.3835C44.2305 27.2874 44.6249 27.2128 45.0558 27.1598C45.4833 27.1068 45.8446 27.0604 46.1396 27.0206C46.4379 26.9808 46.6649 26.9179 46.8207 26.8317C46.9764 26.7455 47.0543 26.6063 47.0543 26.4141V26.2351C47.0543 25.7147 46.8986 25.3054 46.587 25.0071C46.2788 24.7055 45.8346 24.5547 45.2546 24.5547C44.7044 24.5547 44.2553 24.6757 43.9073 24.9176C43.5626 25.1596 43.3207 25.4446 43.1815 25.7727L42.3413 25.4695C42.5136 25.0518 42.7522 24.7187 43.0572 24.4702C43.3621 24.2183 43.7035 24.0376 44.0813 23.9283C44.4592 23.8156 44.842 23.7592 45.2298 23.7592C45.5214 23.7592 45.8247 23.7973 46.1396 23.8736C46.4577 23.9498 46.7527 24.0824 47.0245 24.2713C47.2963 24.4569 47.5167 24.7171 47.6857 25.0518C47.8548 25.3833 47.9393 25.8042 47.9393 26.3146V31.5H47.0543V30.2919H46.9996C46.8936 30.5173 46.7362 30.736 46.5273 30.9482C46.3185 31.1603 46.0567 31.3343 45.7418 31.4702C45.427 31.6061 45.0574 31.674 44.6332 31.674ZM44.7525 30.8636C45.2231 30.8636 45.6308 30.7592 45.9755 30.5504C46.3202 30.3416 46.5853 30.0649 46.771 29.7202C46.9599 29.3722 47.0543 28.9893 47.0543 28.5717V27.468C46.988 27.531 46.877 27.5874 46.7212 27.6371C46.5688 27.6868 46.3915 27.7315 46.1893 27.7713C45.9904 27.8078 45.7915 27.8393 45.5927 27.8658C45.3938 27.8923 45.2148 27.9155 45.0558 27.9354C44.6249 27.9884 44.257 28.0713 43.9521 28.1839C43.6471 28.2966 43.4135 28.4524 43.2511 28.6513C43.0887 28.8468 43.0075 29.0987 43.0075 29.407C43.0075 29.871 43.1732 30.2306 43.5046 30.4858C43.8361 30.7377 44.252 30.8636 44.7525 30.8636ZM51.1783 26.7273V31.5H50.2933V23.8636H51.1534V25.0618H51.233C51.4119 24.6707 51.6903 24.3575 52.0682 24.1222C52.4493 23.8835 52.92 23.7642 53.4801 23.7642C53.9938 23.7642 54.4446 23.8719 54.8324 24.0874C55.2235 24.2995 55.5268 24.6127 55.7422 25.027C55.9609 25.4413 56.0703 25.95 56.0703 26.5533V31.5H55.1854V26.608C55.1854 25.9815 55.0097 25.486 54.6584 25.1214C54.3104 24.7569 53.843 24.5746 53.2564 24.5746C52.8554 24.5746 52.4991 24.6607 52.1875 24.8331C51.8759 25.0054 51.629 25.254 51.4467 25.5788C51.2678 25.9003 51.1783 26.2831 51.1783 26.7273ZM60.5336 31.674C60.0729 31.674 59.6519 31.5845 59.2708 31.4055C58.8896 31.2232 58.5864 30.9614 58.361 30.62C58.1356 30.2753 58.0229 29.8577 58.0229 29.3672C58.0229 28.9893 58.0942 28.6712 58.2367 28.4126C58.3792 28.1541 58.5814 27.942 58.8432 27.7763C59.1051 27.6106 59.415 27.4796 59.7729 27.3835C60.1309 27.2874 60.5253 27.2128 60.9561 27.1598C61.3837 27.1068 61.745 27.0604 62.04 27.0206C62.3382 26.9808 62.5653 26.9179 62.7211 26.8317C62.8768 26.7455 62.9547 26.6063 62.9547 26.4141V26.2351C62.9547 25.7147 62.7989 25.3054 62.4874 25.0071C62.1792 24.7055 61.735 24.5547 61.155 24.5547C60.6048 24.5547 60.1557 24.6757 59.8077 24.9176C59.463 25.1596 59.2211 25.4446 59.0819 25.7727L58.2417 25.4695C58.414 25.0518 58.6526 24.7187 58.9576 24.4702C59.2625 24.2183 59.6039 24.0376 59.9817 23.9283C60.3596 23.8156 60.7424 23.7592 61.1301 23.7592C61.4218 23.7592 61.7251 23.7973 62.04 23.8736C62.3581 23.9498 62.6531 24.0824 62.9249 24.2713C63.1967 24.4569 63.4171 24.7171 63.5861 25.0518C63.7551 25.3833 63.8397 25.8042 63.8397 26.3146V31.5H62.9547V30.2919H62.9C62.794 30.5173 62.6365 30.736 62.4277 30.9482C62.2189 31.1603 61.9571 31.3343 61.6422 31.4702C61.3274 31.6061 60.9578 31.674 60.5336 31.674ZM60.6529 30.8636C61.1235 30.8636 61.5312 30.7592 61.8759 30.5504C62.2206 30.3416 62.4857 30.0649 62.6713 29.7202C62.8603 29.3722 62.9547 28.9893 62.9547 28.5717V27.468C62.8884 27.531 62.7774 27.5874 62.6216 27.6371C62.4692 27.6868 62.2918 27.7315 62.0897 27.7713C61.8908 27.8078 61.6919 27.8393 61.4931 27.8658C61.2942 27.8923 61.1152 27.9155 60.9561 27.9354C60.5253 27.9884 60.1574 28.0713 59.8525 28.1839C59.5475 28.2966 59.3139 28.4524 59.1515 28.6513C58.9891 28.8468 58.9078 29.0987 58.9078 29.407C58.9078 29.871 59.0736 30.2306 59.405 30.4858C59.7364 30.7377 60.1524 30.8636 60.6529 30.8636ZM69.1071 34.5227C68.5867 34.5227 68.131 34.4548 67.7399 34.3189C67.3488 34.1863 67.019 34.004 66.7505 33.772C66.4821 33.54 66.2733 33.2798 66.1241 32.9915L66.85 32.5142C66.9593 32.7064 67.1052 32.8954 67.2875 33.081C67.4731 33.2666 67.7134 33.4207 68.0083 33.5433C68.3066 33.666 68.6729 33.7273 69.1071 33.7273C69.7832 33.7273 70.3284 33.5582 70.7427 33.2202C71.1603 32.8821 71.3691 32.3568 71.3691 31.6442V29.924H71.2896C71.1868 30.156 71.0394 30.388 70.8471 30.62C70.6549 30.8487 70.403 31.0393 70.0914 31.1918C69.7832 31.3442 69.4004 31.4205 68.943 31.4205C68.3332 31.4205 67.7913 31.2696 67.3173 30.968C66.8467 30.6664 66.4754 30.2356 66.2037 29.6754C65.9352 29.112 65.801 28.4408 65.801 27.6619C65.801 26.8897 65.9319 26.2102 66.1937 25.6236C66.4589 25.0369 66.8284 24.5795 67.3024 24.2514C67.7763 23.9233 68.3282 23.7592 68.9579 23.7592C69.4252 23.7592 69.813 23.8421 70.1213 24.0078C70.4295 24.1702 70.6764 24.3724 70.862 24.6143C71.051 24.8563 71.1984 25.0916 71.3045 25.3203H71.394V23.8636H72.2591V31.6989C72.2591 32.3452 72.1215 32.8771 71.8464 33.2947C71.5713 33.7124 71.1968 34.0206 70.7228 34.2195C70.2489 34.4216 69.7103 34.5227 69.1071 34.5227ZM69.0474 30.6101C69.5379 30.6101 69.9572 30.4924 70.3052 30.2571C70.6532 30.0185 70.92 29.6771 71.1056 29.233C71.2913 28.7888 71.3841 28.2602 71.3841 27.647C71.3841 27.0504 71.2929 26.5218 71.1106 26.0611C70.9283 25.5971 70.6632 25.2325 70.3152 24.9673C69.9705 24.6989 69.5479 24.5646 69.0474 24.5646C68.537 24.5646 68.1061 24.7022 67.7548 24.9773C67.4035 25.2524 67.1383 25.6236 66.9593 26.0909C66.7804 26.5549 66.6909 27.0736 66.6909 27.647C66.6909 28.2304 66.782 28.7457 66.9643 29.1932C67.1466 29.6373 67.4134 29.9853 67.7647 30.2372C68.1161 30.4858 68.5436 30.6101 69.0474 30.6101ZM77.6893 31.6591C76.9767 31.6591 76.3602 31.4934 75.8398 31.1619C75.3195 30.8272 74.9168 30.3648 74.6317 29.7749C74.35 29.1816 74.2092 28.4988 74.2092 27.7266C74.2092 26.9576 74.35 26.2749 74.6317 25.6783C74.9168 25.0784 75.3095 24.6094 75.81 24.2713C76.3138 23.9299 76.8955 23.7592 77.555 23.7592C77.9693 23.7592 78.3687 23.8355 78.7532 23.9879C79.1377 24.1371 79.4824 24.3674 79.7873 24.679C80.0955 24.9872 80.3391 25.3767 80.5181 25.8473C80.6971 26.3146 80.7866 26.8681 80.7866 27.5078V27.9453H74.8207V27.1648H79.8817C79.8817 26.6742 79.7823 26.2334 79.5835 25.8423C79.3879 25.4479 79.1145 25.1364 78.7631 24.9077C78.4151 24.679 78.0124 24.5646 77.555 24.5646C77.0711 24.5646 76.6452 24.6939 76.2773 24.9524C75.9094 25.2109 75.6211 25.5523 75.4123 25.9766C75.2068 26.4008 75.1024 26.8648 75.0991 27.3686V27.8359C75.0991 28.4425 75.2035 28.9728 75.4123 29.4268C75.6244 29.8776 75.9244 30.2273 76.3121 30.4759C76.6999 30.7244 77.159 30.8487 77.6893 30.8487C78.0505 30.8487 78.3671 30.7924 78.6388 30.6797C78.9139 30.567 79.1443 30.4162 79.3299 30.2273C79.5188 30.035 79.6613 29.8246 79.7575 29.5959L80.5977 29.8693C80.4817 30.1908 80.2911 30.4875 80.0259 30.7592C79.7641 31.031 79.436 31.2498 79.0415 31.4155C78.6504 31.5779 78.1997 31.6591 77.6893 31.6591ZM82.7367 31.5V23.8636H83.5968V25.0369H83.6614C83.8139 24.6525 84.079 24.3426 84.4569 24.1072C84.838 23.8686 85.2689 23.7493 85.7495 23.7493C85.8224 23.7493 85.9036 23.7509 85.9931 23.7543C86.0826 23.7576 86.1571 23.7609 86.2168 23.7642V24.6641C86.177 24.6574 86.1074 24.6475 86.008 24.6342C85.9086 24.621 85.8008 24.6143 85.6848 24.6143C85.2871 24.6143 84.9325 24.6989 84.6209 24.8679C84.3127 25.0336 84.0691 25.264 83.8901 25.5589C83.7111 25.8539 83.6216 26.1903 83.6216 26.5682V31.5H82.7367Z" fill="#6AE5C6"/>
<path d="M1.35227 14V3.81818H7.25852V4.65341H2.28196V8.48651H6.94531V9.32173H2.28196V13.1648H7.35795V14H1.35227Z" fill="#6AE5C6"/>
<path d="M9.48082 14V6.36364H10.3409V7.53693H10.4205C10.5729 7.14252 10.8265 6.83262 11.1811 6.60724C11.5391 6.37855 11.9683 6.2642 12.4688 6.2642C12.9957 6.2642 13.4283 6.38849 13.7663 6.63707C14.1077 6.88234 14.3629 7.22041 14.532 7.65128H14.5966C14.7689 7.22704 15.049 6.89062 15.4368 6.64205C15.8279 6.39015 16.3018 6.2642 16.8587 6.2642C17.5679 6.2642 18.1281 6.48793 18.5391 6.93537C18.95 7.3795 19.1555 8.02912 19.1555 8.88423V14H18.2706V8.88423C18.2706 8.28101 18.1165 7.8286 17.8082 7.52699C17.5 7.22538 17.094 7.07457 16.5902 7.07457C16.0069 7.07457 15.5578 7.25355 15.2429 7.61151C14.928 7.96946 14.7706 8.42353 14.7706 8.97372V14H13.8658V8.80469C13.8658 8.28764 13.7216 7.87003 13.4332 7.55185C13.1449 7.23366 12.7389 7.07457 12.2152 7.07457C11.8639 7.07457 11.5473 7.16075 11.2656 7.3331C10.9872 7.50544 10.7668 7.74574 10.6044 8.05398C10.4453 8.3589 10.3658 8.71023 10.3658 9.10795V14H9.48082ZM21.4984 16.8636V6.36364H22.3585V7.82031H22.4629C22.569 7.59162 22.7148 7.35795 22.9004 7.11932C23.086 6.87737 23.3313 6.67353 23.6362 6.50781C23.9444 6.34209 24.3322 6.25923 24.7995 6.25923C25.4293 6.25923 25.9795 6.42495 26.4501 6.75639C26.9241 7.08452 27.292 7.54522 27.5538 8.13849C27.819 8.72846 27.9515 9.41619 27.9515 10.2017C27.9515 10.9905 27.819 11.6816 27.5538 12.2749C27.292 12.8681 26.9241 13.3305 26.4501 13.6619C25.9795 13.9934 25.4326 14.1591 24.8095 14.1591C24.3488 14.1591 23.9627 14.0762 23.6511 13.9105C23.3429 13.7448 23.0926 13.541 22.9004 13.299C22.7115 13.0537 22.5656 12.8151 22.4629 12.5831H22.3833V16.8636H21.4984ZM22.3734 10.1868C22.3734 10.8033 22.4645 11.3501 22.6468 11.8274C22.8324 12.3014 23.0976 12.6742 23.4423 12.946C23.7903 13.2145 24.2112 13.3487 24.7051 13.3487C25.2122 13.3487 25.6397 13.2095 25.9877 12.9311C26.3391 12.6494 26.6059 12.2699 26.7882 11.7926C26.9738 11.3153 27.0666 10.7801 27.0666 10.1868C27.0666 9.60014 26.9754 9.0715 26.7931 8.60085C26.6142 8.13021 26.349 7.75734 25.9977 7.48224C25.6464 7.20384 25.2155 7.06463 24.7051 7.06463C24.2079 7.06463 23.7853 7.19886 23.4373 7.46733C23.0893 7.73248 22.8242 8.10038 22.6419 8.57102C22.4629 9.03835 22.3734 9.57694 22.3734 10.1868ZM30.7779 3.81818V14H29.8929V3.81818H30.7779ZM36.0875 14.1591C35.428 14.1591 34.8446 13.9917 34.3375 13.657C33.8337 13.3222 33.4393 12.8598 33.1543 12.2699C32.8693 11.6766 32.7267 10.9922 32.7267 10.2166C32.7267 9.43442 32.8693 8.74669 33.1543 8.15341C33.4393 7.55682 33.8337 7.0928 34.3375 6.76136C34.8446 6.42661 35.428 6.25923 36.0875 6.25923C36.7471 6.25923 37.3288 6.42661 37.8326 6.76136C38.3364 7.09612 38.7308 7.56013 39.0158 8.15341C39.3042 8.74669 39.4483 9.43442 39.4483 10.2166C39.4483 10.9922 39.3058 11.6766 39.0208 12.2699C38.7357 12.8598 38.3397 13.3222 37.8326 13.657C37.3288 13.9917 36.7471 14.1591 36.0875 14.1591ZM36.0875 13.3487C36.6178 13.3487 37.0669 13.2062 37.4348 12.9212C37.8027 12.6361 38.0811 12.2566 38.2701 11.7827C38.4623 11.3087 38.5584 10.7867 38.5584 10.2166C38.5584 9.64654 38.4623 9.12287 38.2701 8.6456C38.0811 8.16832 37.8027 7.78551 37.4348 7.49716C37.0669 7.20881 36.6178 7.06463 36.0875 7.06463C35.5605 7.06463 35.1114 7.20881 34.7402 7.49716C34.3723 7.78551 34.0923 8.16832 33.9 8.6456C33.7111 9.12287 33.6167 9.64654 33.6167 10.2166C33.6167 10.7867 33.7111 11.3087 33.9 11.7827C34.0923 12.2566 34.3723 12.6361 34.7402 12.9212C35.1081 13.2062 35.5572 13.3487 36.0875 13.3487ZM41.734 16.8636C41.5584 16.8636 41.3943 16.8471 41.2418 16.8139C41.0894 16.7808 40.9684 16.7443 40.8789 16.7045L41.1175 15.924C41.4192 16.0168 41.6876 16.05 41.9229 16.0234C42.1583 16.0002 42.3671 15.8942 42.5494 15.7053C42.7317 15.5196 42.8941 15.2346 43.0366 14.8501L43.315 14.0746L40.506 6.36364H41.4656L43.7326 12.8317H43.8022L46.0692 6.36364H47.0288L43.7972 15.2081C43.6613 15.576 43.494 15.8826 43.2951 16.1278C43.0962 16.3764 42.8659 16.5604 42.604 16.6797C42.3455 16.8023 42.0555 16.8636 41.734 16.8636ZM51.574 14.1591C50.8614 14.1591 50.245 13.9934 49.7246 13.6619C49.2042 13.3272 48.8016 12.8648 48.5165 12.2749C48.2348 11.6816 48.0939 10.9988 48.0939 10.2266C48.0939 9.45762 48.2348 8.77486 48.5165 8.17827C48.8016 7.57836 49.1943 7.10937 49.6948 6.77131C50.1986 6.42992 50.7802 6.25923 51.4398 6.25923C51.8541 6.25923 52.2535 6.33546 52.638 6.48793C53.0224 6.63707 53.3671 6.86742 53.6721 7.17898C53.9803 7.48722 54.2239 7.87666 54.4029 8.3473C54.5819 8.81463 54.6713 9.36813 54.6713 10.0078V10.4453H48.7054V9.66477H53.7665C53.7665 9.17424 53.6671 8.73343 53.4682 8.34233C53.2727 7.94792 52.9992 7.63636 52.6479 7.40767C52.2999 7.17898 51.8972 7.06463 51.4398 7.06463C50.9559 7.06463 50.53 7.19389 50.1621 7.45241C49.7942 7.71094 49.5059 8.05232 49.2971 8.47656C49.0916 8.9008 48.9872 9.36482 48.9838 9.86861V10.3359C48.9838 10.9425 49.0882 11.4728 49.2971 11.9268C49.5092 12.3776 49.8091 12.7273 50.1969 12.9759C50.5847 13.2244 51.0437 13.3487 51.574 13.3487C51.9353 13.3487 52.2518 13.2924 52.5236 13.1797C52.7987 13.067 53.0291 12.9162 53.2147 12.7273C53.4036 12.535 53.5461 12.3246 53.6422 12.0959L54.4824 12.3693C54.3664 12.6908 54.1758 12.9875 53.9107 13.2592C53.6489 13.531 53.3207 13.7498 52.9263 13.9155C52.5352 14.0779 52.0845 14.1591 51.574 14.1591ZM59.7088 14.1591C58.9962 14.1591 58.3797 13.9934 57.8594 13.6619C57.339 13.3272 56.9363 12.8648 56.6513 12.2749C56.3696 11.6816 56.2287 10.9988 56.2287 10.2266C56.2287 9.45762 56.3696 8.77486 56.6513 8.17827C56.9363 7.57836 57.3291 7.10937 57.8295 6.77131C58.3333 6.42992 58.915 6.25923 59.5746 6.25923C59.9889 6.25923 60.3883 6.33546 60.7727 6.48793C61.1572 6.63707 61.5019 6.86742 61.8068 7.17898C62.1151 7.48722 62.3587 7.87666 62.5376 8.3473C62.7166 8.81463 62.8061 9.36813 62.8061 10.0078V10.4453H56.8402V9.66477H61.9013C61.9013 9.17424 61.8018 8.73343 61.603 8.34233C61.4074 7.94792 61.134 7.63636 60.7827 7.40767C60.4347 7.17898 60.032 7.06463 59.5746 7.06463C59.0907 7.06463 58.6648 7.19389 58.2969 7.45241C57.929 7.71094 57.6406 8.05232 57.4318 8.47656C57.2263 8.9008 57.1219 9.36482 57.1186 9.86861V10.3359C57.1186 10.9425 57.223 11.4728 57.4318 11.9268C57.6439 12.3776 57.9439 12.7273 58.3317 12.9759C58.7195 13.2244 59.1785 13.3487 59.7088 13.3487C60.0701 13.3487 60.3866 13.2924 60.6584 13.1797C60.9335 13.067 61.1638 12.9162 61.3494 12.7273C61.5384 12.535 61.6809 12.3246 61.777 12.0959L62.6172 12.3693C62.5012 12.6908 62.3106 12.9875 62.0455 13.2592C61.7836 13.531 61.4555 13.7498 61.0611 13.9155C60.67 14.0779 60.2192 14.1591 59.7088 14.1591Z" fill="white"/>
<path d="M25 23.5L21.5 27.5L5 30.5L25 23.5Z" fill="url(#paint0_linear_201_106)"/>
<path d="M5 23.5L8.5 27.5L25 30.5L5 23.5Z" fill="url(#paint1_linear_201_106)"/>
<defs>
<linearGradient id="paint0_linear_201_106" x1="25" y1="33" x2="3" y2="33" gradientUnits="userSpaceOnUse">
<stop stop-color="#6AE5C6" stop-opacity="0.5"/>
<stop offset="0.489583" stop-color="#6AE5C6" stop-opacity="0.7"/>
<stop offset="1" stop-color="#6AE5C6"/>
</linearGradient>
<linearGradient id="paint1_linear_201_106" x1="25" y1="33" x2="3" y2="33" gradientUnits="userSpaceOnUse">
<stop stop-color="#6AE5C6" stop-opacity="0.5"/>
<stop offset="0.489583" stop-color="#6AE5C6" stop-opacity="0.7"/>
<stop offset="1" stop-color="#6AE5C6"/>
</linearGradient>
</defs>
</svg>
